<?xml version="1.0" encoding="UTF-8"?><svg id="uuid-28aba061-0bb1-4143-92e6-9496228c31d2" xmlns="http://www.w3.org/2000/svg" viewBox="0 0 474 49"><defs><style>.uuid-33df24a9-3be1-45d4-b880-07540c919b3e{stroke:#1d1d1b;stroke-width:2px;}.uuid-33df24a9-3be1-45d4-b880-07540c919b3e,.uuid-e387e51f-a5ba-455f-8c26-24bf9b444e00{fill:#1d1d1b;}</style></defs><path class="uuid-e387e51f-a5ba-455f-8c26-24bf9b444e00" d="M29.09,36.32c0,6.85-6.14,11.52-13.82,11.52-9.15,0-13.12-7.62-13.5-14.78l9.98-2.56c-1.22,2.62-1.34,9.66,4.22,9.66,2.37,0,3.84-1.66,3.84-3.84,0-3.14-1.79-5.12-6.46-7.87-5.89-3.52-11.07-8.77-11.07-15.49C2.27,7.58,7.07,1.44,15.39,1.44c8.96,0,13.82,4.8,13.7,14.02l-10.05,1.86c.83-3.84.32-8.7-3.58-8.7-2.5,0-3.9,2.05-3.9,4.35,0,3.78,1.92,5.18,6.27,7.81,5.82,3.58,11.26,8.77,11.26,15.55Z"/><path class="uuid-e387e51f-a5ba-455f-8c26-24bf9b444e00" d="M54.56,9.7h-12.35v10.69h9.6v6.53h-9.6v12.54h12.35v7.62h-21.57V2.08h21.57v7.62Z"/><path class="uuid-e387e51f-a5ba-455f-8c26-24bf9b444e00" d="M68.06,2.08v44.99h-9.34V2.08h9.34Z"/><path class="uuid-e387e51f-a5ba-455f-8c26-24bf9b444e00" d="M96.35,9.7h-8v37.37h-9.28V9.7h-8.06V2.08h25.34v7.62Z"/><path class="uuid-e387e51f-a5ba-455f-8c26-24bf9b444e00" d="M124.76,2.08v44.99h-9.28V14.05s-2.75,7.62-7.55,7.62v-9.34c8.13-1.98,7.74-10.24,7.74-10.24h9.09Z"/><path class="uuid-e387e51f-a5ba-455f-8c26-24bf9b444e00" d="M143.07,1.5c14.72,0,15.49,19.52,15.42,24.06,0,8.45-3.58,22.08-15.74,22.08-8.58,0-12.67-4.16-12.8-12.16l10.5-2.94c-1.79,3.26-1.92,8.51,2.3,8.45,5.95-.06,6.02-7.17,5.89-14.33-.58,1.54-3.46,4.42-7.42,4.42-9.28,0-12.54-8.25-12.54-15.17-.13-8.19,5.76-14.4,14.4-14.4ZM138.46,16.61c0,3.46,1.47,7.94,4.61,7.94s4.42-4.93,4.42-8c0-2.75-.77-8.58-4.54-8.58-4.22.13-4.48,6.66-4.48,8.64Z"/><path class="uuid-e387e51f-a5ba-455f-8c26-24bf9b444e00" d="M186.27,47.64h-.06c-14.72,0-14.85-19.39-14.78-23.93,0-9.47,2.3-22.21,14.85-22.21,13.76,0,14.85,15.04,14.85,22.21.06,4.54-.06,23.93-14.85,23.93ZM191.32,23.9c0-7.49-.64-15.87-4.93-16-4.42.06-4.61,8.51-4.61,16,0,6.59-.38,17.15,4.54,17.28,4.86-.13,4.99-10.69,4.99-17.28Z"/><path class="uuid-e387e51f-a5ba-455f-8c26-24bf9b444e00" d="M230.15,38.43v8.64h-26.37c-2.94-19.46,18.05-18.94,18.05-33.53,0-2.3-1.6-5.44-4.93-5.44-4.22,0-5.31,4.74-3.46,10.62l-9.86-3.01c.13-8.51,5.31-14.27,13.89-14.27,7.42,0,13.25,4.67,13.25,12.1,0,14.14-15.29,18.94-16.77,24.89h16.19Z"/><path class="uuid-e387e51f-a5ba-455f-8c26-24bf9b444e00" d="M270.21,38.43v8.64h-26.37c-2.94-19.46,18.05-18.94,18.05-33.53,0-2.3-1.6-5.44-4.93-5.44-4.22,0-5.31,4.74-3.46,10.62l-9.86-3.01c.13-8.51,5.31-14.27,13.89-14.27,7.42,0,13.25,4.67,13.25,12.1,0,14.14-15.29,18.94-16.77,24.89h16.19Z"/><path class="uuid-e387e51f-a5ba-455f-8c26-24bf9b444e00" d="M288.35,47.64h-.06c-14.72,0-14.85-19.39-14.78-23.93,0-9.47,2.3-22.21,14.85-22.21,13.76,0,14.85,15.04,14.85,22.21.06,4.54-.06,23.93-14.85,23.93ZM293.41,23.9c0-7.49-.64-15.87-4.93-16-4.42.06-4.61,8.51-4.61,16,0,6.59-.38,17.15,4.54,17.28,4.86-.13,4.99-10.69,4.99-17.28Z"/><path class="uuid-e387e51f-a5ba-455f-8c26-24bf9b444e00" d="M345.44,2.08v44.99h-9.34v-20.16h-10.05v20.16h-9.34V2.08h9.34v18.3h10.05V2.08h9.34Z"/><path class="uuid-e387e51f-a5ba-455f-8c26-24bf9b444e00" d="M380.13,47.07h-10.24l-1.22-7.74h-8.51l-1.22,7.74h-10.3l9.98-44.99h11.78l9.73,44.99ZM367.33,31.58l-2.94-20.22-2.88,20.22h5.82Z"/><path class="uuid-e387e51f-a5ba-455f-8c26-24bf9b444e00" d="M410.14,2.08v44.99h-8.51l-9.09-28.48v28.48h-9.21V2.08h10.17l7.3,25.98V2.08h9.34Z"/><path class="uuid-e387e51f-a5ba-455f-8c26-24bf9b444e00" d="M444.83,47.07h-10.24l-1.22-7.74h-8.51l-1.22,7.74h-10.3l9.98-44.99h11.78l9.73,44.99ZM432.03,31.58l-2.94-20.22-2.88,20.22h5.82Z"/><path class="uuid-e387e51f-a5ba-455f-8c26-24bf9b444e00" d="M473.25,2.08v30.59c0,8.96-3.65,15.04-13.38,15.04s-12.86-5.76-13.12-14.46V2.08h9.21v30.14c-.13,3.78.64,8.45,4.03,8.45,3.71,0,4.03-4.86,4.03-8.58V2.08h9.22Z"/><line class="uuid-33df24a9-3be1-45d4-b880-07540c919b3e" x1="165" y1="1.57" x2="165" y2="47.07"/><line class="uuid-33df24a9-3be1-45d4-b880-07540c919b3e" x1="236.83" y1="1.57" x2="236.83" y2="47.07"/></svg>